<svg width="100" height="100" viewBox="0 0 100 100" fill="none" xmlns="http://www.w3.org/2000/svg">
<circle cx="50" cy="50" r="50" fill="#273040"/>
<path d="M44.5557 69C44.389 71.6667 43.0557 77 39.0557 77" stroke="white" stroke-linecap="round" stroke-linejoin="round"/>
<path d="M54.5557 68.5C54.7223 71.1667 56.0557 76.5 60.0557 76.5" stroke="white" stroke-linecap="round" stroke-linejoin="round"/>
<path d="M45.0557 60.5H47.5557C48.0557 60.5 48.5557 61.5 49.5557 61.5C50.5557 61.5 51.0557 60.5 51.5557 60.5H54.0557" stroke="white" stroke-linecap="round" stroke-linejoin="round"/>
<path d="M45.5557 51C44.5557 51.8333 41.7557 53 38.5557 51" stroke="white" stroke-linecap="round" stroke-linejoin="round"/>
<path d="M53.5557 51C54.5557 51.8333 57.3557 53 60.5557 51" stroke="white" stroke-linecap="round" stroke-linejoin="round"/>
<path d="M47.5557 56.5C48.1271 57.2546 49.7271 58.3111 51.5557 56.5" stroke="white" stroke-linecap="round" stroke-linejoin="round"/>
<path d="M48.5557 63.5C48.8414 63.8773 49.6414 64.4055 50.5557 63.5" stroke="white" stroke-linecap="round" stroke-linejoin="round"/>
<path d="M46.0557 46C45.5557 46 40.5557 45.5 39.5557 45.5C38.99 45.5 38.0557 46.3334 37.5557 46.5001" stroke="white" stroke-linecap="round" stroke-linejoin="round"/>
<path d="M53.5557 46C54.0557 46 59.0557 45.5 60.0557 45.5C60.6213 45.5 61.5557 46.3334 62.0557 46.5001" stroke="white" stroke-linecap="round" stroke-linejoin="round"/>
<path d="M32.0559 49.0001C31.3893 45.0001 31.1572 36.8376 33.5558 33C36.0558 28.9999 42.0405 24 50.0561 24C56.0561 24 63.6594 29.7059 65.5561 33.5001C67.5557 37.5 68.2561 43.4002 67.0561 49.0001" stroke="white" stroke-linecap="round" stroke-linejoin="round"/>
<path d="M32.5557 52.0002C33.0557 51.8335 34.2557 51.6002 35.0557 52.0002" stroke="white" stroke-linecap="round" stroke-linejoin="round"/>
<path d="M67.0557 51.7209C66.5557 51.5542 65.3557 51.3209 64.5557 51.7209" stroke="white" stroke-linecap="round" stroke-linejoin="round"/>
<path d="M49.5176 44.4619V45.6768" stroke="#A98143" stroke-linecap="round"/>
<path d="M49.5176 47.5698V48.7282" stroke="#A98143" stroke-linecap="round"/>
<path d="M49.4902 50.5366V51.8928" stroke="#A98143" stroke-linecap="round"/>
<path d="M49.5742 53.5879V54.8593" stroke="#A98143" stroke-linecap="round"/>
<path d="M52.666 52.7827L53.5599 53.6766" stroke="#A98143" stroke-linecap="round"/>
<path d="M55.1494 54.519C55.3985 54.6584 55.6477 54.8069 55.9006 54.9218C56.0095 54.9713 56.1486 54.9929 56.2709 54.9929" stroke="#A98143" stroke-linecap="round"/>
<path d="M57.9658 55.4526C58.3795 55.585 58.8599 55.5374 59.2937 55.5374" stroke="#A98143" stroke-linecap="round"/>
<path d="M61.0732 55.3676C61.3621 55.3676 61.7405 55.2995 61.9773 55.1416" stroke="#A98143" stroke-linecap="round"/>
<path d="M46.457 52.6509C46.3044 52.7631 46.1745 52.8652 46.046 53.0013C46.0113 53.038 45.9909 53.0944 45.9703 53.1398C45.9319 53.2242 45.8693 53.2024 45.8383 53.2566C45.8171 53.2937 45.8227 53.3494 45.7864 53.3821C45.7503 53.4145 45.6955 53.381 45.6804 53.4491C45.6523 53.5756 45.5745 53.5202 45.5225 53.6244" stroke="#A98143" stroke-linecap="round"/>
<path d="M43.9259 54.481C43.6304 54.5341 43.3357 54.6503 43.0519 54.7535C42.9308 54.7976 42.8463 54.9093 42.7188 54.9093" stroke="#A98143" stroke-linecap="round"/>
<path d="M41.1997 55.2988C40.8033 55.5309 40.2545 55.6103 39.7979 55.6103" stroke="#A98143" stroke-linecap="round"/>
<path d="M38.046 55.4546C37.7543 55.4546 37.2579 55.3097 37.1504 54.9873" stroke="#A98143" stroke-linecap="round"/>
<path d="M53.6953 65.8205C53.8266 65.7958 54.0533 65.7363 54.1599 65.638C54.1875 65.6125 54.2713 65.5872 54.2845 65.5574C54.3098 65.5006 54.3607 65.4629 54.4091 65.4252C54.4928 65.3602 54.5712 65.2353 54.6697 65.186" stroke="#A98143" stroke-linecap="round"/>
<path d="M50.8623 67.0896C51.0115 67.0633 51.2162 67.0455 51.3508 66.9763C51.4523 66.9241 51.6086 66.8558 51.7222 66.8416C51.8376 66.8272 51.9491 66.7881 52.0407 66.7271" stroke="#A98143" stroke-linecap="round"/>
<path d="M48.2114 67.1573C47.9174 67.1502 47.6221 66.9882 47.3452 66.903C47.261 66.8771 46.9802 66.7797 46.9424 66.7041" stroke="#A98143" stroke-linecap="round"/>
<path d="M45.3787 65.9341C45.1178 65.8871 44.9364 65.6709 44.7341 65.5148C44.6377 65.4405 44.5856 65.3838 44.5856 65.2655C44.5856 65.1937 44.5377 65.2239 44.5176 65.1636" stroke="#A98143" stroke-linecap="round"/>
<path d="M42.9395 41.3185C43.2297 41.3125 43.4125 41.16 43.6654 41.114C43.8292 41.0842 43.9792 40.9463 44.1387 40.9463" stroke="#A98143" stroke-linecap="round"/>
<path d="M45.752 40.45C45.9502 40.4143 46.1228 40.3749 46.3217 40.3673C46.4161 40.3636 46.4799 40.2887 46.5882 40.2846C46.7751 40.2774 46.9351 40.1191 47.1166 40.1191" stroke="#A98143" stroke-linecap="round"/>
<path d="M48.6465 40.0361C49.1005 39.9087 49.583 39.9534 50.0525 39.9534" stroke="#A98143" stroke-linecap="round"/>
<path d="M51.8721 40.1191C52.3543 40.1191 52.8498 40.1605 53.3194 40.1605" stroke="#A98143" stroke-linecap="round"/>
<path d="M54.8086 40.6152C54.9847 40.6195 55.1569 40.6979 55.3278 40.6979C55.452 40.6979 55.6187 40.675 55.7207 40.76C55.7832 40.812 55.9278 40.7773 56.0078 40.8128C56.0859 40.8475 56.1745 40.9073 56.2146 40.9874" stroke="#A98143" stroke-linecap="round"/>
<path d="M35.0561 48.5C34.2228 48.5 31.6275 48.6413 31.0554 51.5C30.555 54.0002 33.5559 58.5 35.5559 58" stroke="white" stroke-linecap="round" stroke-linejoin="round"/>
<path d="M64.5557 48.5C65.389 48.5 68.4836 48.6413 69.0557 51.5C69.5561 54.0002 65.5557 58.5 63.5557 58" stroke="white" stroke-linecap="round" stroke-linejoin="round"/>
<path d="M34.5557 41C36.889 41 39.0557 40.4995 41.0557 37.9998C43.0557 35.5001 45.5557 31.5 50.0557 31.5C54.5557 31.5 54.5557 35.9996 56.5557 35C58.5557 34.0004 61.5557 41.9998 64.5557 40.9998" stroke="white" stroke-width="1.3" stroke-linecap="round" stroke-linejoin="round"/>
<path d="M36.0557 41C35.389 44 35.5555 50.5 35.5558 54C35.5561 58.6098 37.5557 63.5 41.5557 66.5C44.7557 68.9 48.0557 70.1667 49.5557 70.5C51.0557 70.1667 54.2894 68.9135 56.0563 67.5C58.5563 65.5 62.0563 61.5 63.0563 58.5C63.5563 57 65.0563 48.5 63.5563 41.5" stroke="white" stroke-width="1.3" stroke-linecap="round" stroke-linejoin="round"/>
</svg>
