<svg width="100" height="100" viewBox="0 0 100 100" fill="none" xmlns="http://www.w3.org/2000/svg">
<circle cx="50" cy="50" r="50" fill="#273040"/>
<path d="M33 47.0001V47.0001C33 47.1039 33.1924 47.1626 33.2644 47.0878C34.3129 45.9977 37.7767 44.7838 41 45.5001C45.5 46.5001 47.5 48.5001 50.5 48.5001C52.7535 48.5001 57 47.9616 57 47.5001" stroke="white" stroke-width="1.3"/>
<path d="M33 34.2692V32.5C33 31.3954 33.8954 30.5 35 30.5H55C56.1046 30.5 57 31.3954 57 32.5V56.5C57 57.6046 56.1046 58.5 55 58.5H35C33.8954 58.5 33 57.6046 33 56.5V47.4615V36.4231" stroke="white" stroke-width="1.3" stroke-linecap="round"/>
<line x1="64.0447" y1="34.3186" x2="70.1447" y2="34.3186" stroke="#AD874D" stroke-width="1.9" stroke-linecap="round"/>
<path d="M45.0334 71.7235C45.0327 73.2107 44.5378 76.9957 47.5 77.1767C50.0534 77.3326 59.5153 77.5072 63.5834 77.1767C65.3396 77.034 67.0004 75.1937 67.0004 73.2107C67.0004 71.2277 67.0004 49.9107 67.0004 39.5" stroke="white" stroke-width="1.3" stroke-linecap="round" stroke-linejoin="round"/>
<path d="M43 26.4999V23.4999C43 21.5001 47 21.5 47 23.4999C47 24.4997 47 25.4999 47 26.5001" stroke="white" stroke-width="1.3" stroke-linecap="round" stroke-linejoin="round"/>
<path d="M37 62.5002V65.1668C37 66.9444 33 66.9444 33 65.1668C33 64.2781 33 63.389 33 62.5" stroke="white" stroke-width="1.3" stroke-linecap="round" stroke-linejoin="round"/>
<path d="M57 62.5002V65.1668C57 66.9444 53 66.9444 53 65.1668C53 64.2781 53 63.389 53 62.5" stroke="white" stroke-width="1.3" stroke-linecap="round" stroke-linejoin="round"/>
<path d="M47 67.5002V70.1668C47 71.9444 43 71.9444 43 70.1668C43 69.2781 43 68.389 43 67.5" stroke="white" stroke-width="1.3" stroke-linecap="round" stroke-linejoin="round"/>
<path d="M49 62.5002V65.8335C49 68.0555 41 68.0555 41 65.8335C41 64.7226 41 63.6112 41 62.5" stroke="white" stroke-width="1.3" stroke-linecap="round" stroke-linejoin="round"/>
<rect x="65.15" y="30.15" width="3.7" height="8.7" rx="1.85" stroke="#AD874D" stroke-width="1.3"/>
<rect x="29.65" y="27.15" width="30.7" height="34.7" rx="3.35" stroke="#AD874D" stroke-width="1.3"/>
</svg>
