<svg width="100" height="100" viewBox="0 0 100 100" fill="none" xmlns="http://www.w3.org/2000/svg">
<circle cx="50" cy="50" r="50" fill="#273040"/>
<path d="M34.7279 55.3619C35.353 53.0402 38.647 53.0402 39.2721 55.3619C39.5828 56.5158 40.4842 57.4172 41.6381 57.7279C43.9598 58.353 43.9598 61.647 41.6381 62.2721C40.4842 62.5828 39.5828 63.4842 39.2721 64.6381C38.647 66.9598 35.353 66.9598 34.7279 64.6381C34.4172 63.4842 33.5158 62.5828 32.3619 62.2721C30.0402 61.647 30.0402 58.353 32.3619 57.7279C33.5158 57.4172 34.4172 56.5158 34.7279 55.3619Z" stroke="white"/>
<path d="M29 47C28.5 47.8333 25 48.5 24.0004 49.5C23.1061 50.3946 22.8337 64 23.0004 71C23.1672 71.8333 24.0008 73.6 26.0008 74C28.0008 74.4 42.1675 74.1667 49.0008 74C49.6675 74 51.1008 73.4 51.5008 71C51.9008 68.6 52.0944 50.0932 51.5008 49.5C50.5 48.5 46.3 48.1 45.5 46.5" stroke="white" stroke-width="1.3" stroke-linecap="round" stroke-linejoin="round"/>
<path d="M45 73.5V73.5C45 73.7761 45.2239 74 45.5 74H73C75.2091 74 77 72.2091 77 70V29C77 26.7909 75.2091 25 73 25H49C46.7909 25 45 26.7909 45 29V37.25" stroke="white"/>
<rect x="49.5" y="31.5" width="10" height="5" rx="2.5" stroke="white"/>
<rect x="62.5" y="31.5" width="10" height="5" rx="2.5" stroke="white"/>
<rect x="50.5" y="42.5" width="10" height="5" rx="2.5" stroke="white"/>
<rect x="62.5" y="42.5" width="10" height="5" rx="2.5" stroke="white"/>
<path d="M52 52H57C58.6569 52 60 53.3431 60 55V55C60 56.6569 58.6569 58 57 58H52" stroke="white"/>
<rect x="62.5" y="52.5" width="10" height="5" rx="2.5" stroke="white"/>
<path d="M52 63H57C58.6569 63 60 64.3431 60 66V66C60 67.6569 58.6569 69 57 69H52" stroke="white"/>
<rect x="62.5" y="63.5" width="10" height="5" rx="2.5" stroke="white"/>
<rect x="24.7299" y="37.6552" width="25.447" height="8.49083" rx="2.15" stroke="#A98143" stroke-width="1.7"/>
</svg>
