<svg width="100" height="100" viewBox="0 0 100 100" fill="none" xmlns="http://www.w3.org/2000/svg">
<circle cx="50" cy="50" r="50" fill="#273040"/>
<path d="M44.5557 70.5381C44.389 73.2048 43.0557 78.5381 39.0557 78.5381" stroke="white" stroke-linecap="round" stroke-linejoin="round"/>
<path d="M54.5557 70.0381C54.7223 72.7048 56.0557 78.0381 60.0557 78.0381" stroke="white" stroke-linecap="round" stroke-linejoin="round"/>
<path d="M45.0557 62.0381H47.5557C48.0557 62.0381 48.5557 63.0381 49.5557 63.0381C50.5557 63.0381 51.0557 62.0381 51.5557 62.0381H54.0557" stroke="white" stroke-linecap="round" stroke-linejoin="round"/>
<path d="M45.5557 52.5381C44.5557 53.3714 41.7557 54.5381 38.5557 52.5381" stroke="white" stroke-linecap="round" stroke-linejoin="round"/>
<path d="M53.5557 52.5381C54.5557 53.3714 57.3557 54.5381 60.5557 52.5381" stroke="white" stroke-linecap="round" stroke-linejoin="round"/>
<path d="M47.5557 58.0381C48.1271 58.7927 49.7271 59.8492 51.5557 58.0381" stroke="white" stroke-linecap="round" stroke-linejoin="round"/>
<path d="M56 60.5381C56.7546 60.9667 57.8111 62.1667 56 63.5381" stroke="white" stroke-linecap="round" stroke-linejoin="round"/>
<path d="M60.0412 56.159C58.8936 56.6615 55.9251 57.0409 53.2314 54.5381" stroke="white" stroke-linecap="round" stroke-linejoin="round"/>
<path d="M46.0557 47.5381C45.5557 47.5381 40.5557 47.0381 39.5557 47.0381C38.99 47.0381 38.0557 47.8715 37.5557 48.0382" stroke="white" stroke-linecap="round" stroke-linejoin="round"/>
<path d="M53.5557 47.5381C54.0557 47.5381 59.0557 47.0381 60.0557 47.0381C60.6213 47.0381 61.5557 47.8715 62.0557 48.0382" stroke="white" stroke-linecap="round" stroke-linejoin="round"/>
<path d="M32.0559 50.5382C31.3893 46.5382 31.1572 38.3757 33.5558 34.5381C36.0558 30.538 42.0405 25.5381 50.0561 25.5381C56.0561 25.5381 63.6594 31.244 65.5561 35.0381C67.5557 39.0381 68.2561 44.9383 67.0561 50.5382" stroke="white" stroke-linecap="round" stroke-linejoin="round"/>
<path d="M32.5557 53.5382C33.0557 53.3716 34.2557 53.1382 35.0557 53.5382" stroke="white" stroke-linecap="round" stroke-linejoin="round"/>
<path d="M67.0557 53.2589C66.5557 53.0923 65.3557 52.8589 64.5557 53.2589" stroke="white" stroke-linecap="round" stroke-linejoin="round"/>
<path d="M49.5176 46V47.2149" stroke="#A98143" stroke-linecap="round"/>
<path d="M49.5176 43V44.2149" stroke="#A98143" stroke-linecap="round"/>
<path d="M49.5176 40V41.2149" stroke="#A98143" stroke-linecap="round"/>
<path d="M49.5176 37V38.2149" stroke="#A98143" stroke-linecap="round"/>
<path d="M49.5176 28V29.2149" stroke="#A98143" stroke-linecap="round"/>
<path d="M49.5176 25V26.2149" stroke="#A98143" stroke-linecap="round"/>
<path d="M49.5176 22V23.2149" stroke="#A98143" stroke-linecap="round"/>
<path d="M49.5176 49.1079V50.2663" stroke="#A98143" stroke-linecap="round"/>
<path d="M49.4902 52.0747V53.4309" stroke="#A98143" stroke-linecap="round"/>
<path d="M49.5742 55.126V56.3974" stroke="#A98143" stroke-linecap="round"/>
<path d="M49.5742 58.126V59.3974" stroke="#A98143" stroke-linecap="round"/>
<path d="M49.5742 61.126V62.3974" stroke="#A98143" stroke-linecap="round"/>
<path d="M49.5742 64.126V65.3974" stroke="#A98143" stroke-linecap="round"/>
<path d="M49.5742 67.126V68.3974" stroke="#A98143" stroke-linecap="round"/>
<path d="M49.5742 70.126V71.3974" stroke="#A98143" stroke-linecap="round"/>
<path d="M49.5742 73.126V74.3974" stroke="#A98143" stroke-linecap="round"/>
<path d="M49.5742 76.126V77.3974" stroke="#A98143" stroke-linecap="round"/>
<path d="M35.0561 50.0381C34.2228 50.0381 31.6275 50.1794 31.0554 53.0381C30.555 55.5383 33.5559 60.0381 35.5559 59.5381" stroke="white" stroke-linecap="round" stroke-linejoin="round"/>
<path d="M64.5557 50.0381C65.389 50.0381 68.4836 50.1794 69.0557 53.0381C69.5561 55.5383 65.5557 60.0381 63.5557 59.5381" stroke="white" stroke-linecap="round" stroke-linejoin="round"/>
<path d="M34.5557 42.5381C36.889 42.5381 39.0557 42.0376 41.0557 39.5379C43.0557 37.0382 45.5557 33.0381 50.0557 33.0381C54.5557 33.0381 54.5557 37.5377 56.5557 36.5381C58.5557 35.5385 61.5557 43.5379 64.5557 42.5379" stroke="white" stroke-width="1.3" stroke-linecap="round" stroke-linejoin="round"/>
<path d="M36.0557 42.5381C35.389 45.5381 35.5555 52.0381 35.5558 55.5381C35.5561 60.1479 37.5557 65.0381 41.5557 68.0381C44.7557 70.4381 48.0557 71.7048 49.5557 72.0381C51.0557 71.7048 54.2894 70.4516 56.0563 69.0381C58.5563 67.0381 62.0563 63.0381 63.0563 60.0381C63.5563 58.5381 65.0563 50.0381 63.5563 43.0381" stroke="white" stroke-width="1.3" stroke-linecap="round" stroke-linejoin="round"/>
<path d="M49.5176 34V35.2149" stroke="#A98143" stroke-linecap="round"/>
<path d="M49.5176 31V32.2149" stroke="#A98143" stroke-linecap="round"/>
<path d="M30.5311 66.2461C30.6922 65.8108 31.3078 65.8108 31.4689 66.2461L31.722 66.9299C31.8739 67.3405 32.1976 67.6642 32.6082 67.8161L33.292 68.0692C33.7273 68.2302 33.7273 68.8459 33.292 69.007L32.6082 69.26C32.1976 69.412 31.8739 69.7357 31.722 70.1463L31.4689 70.8301C31.3078 71.2654 30.6922 71.2654 30.5311 70.8301L30.278 70.1463C30.1261 69.7357 29.8024 69.412 29.3918 69.26L28.708 69.007C28.2727 68.8459 28.2727 68.2302 28.708 68.0692L29.3918 67.8161C29.8024 67.6642 30.1261 67.3405 30.278 66.9299L30.5311 66.2461Z" fill="white" stroke="#A98143"/>
<path d="M35.0803 70.6522C35.2414 70.2169 35.8693 70.2169 36.0304 70.6522C36.1823 71.0628 36.5098 71.3903 36.9204 71.5423C37.3557 71.7033 37.3557 72.3312 36.9204 72.4923C36.5098 72.6442 36.1823 72.9718 36.0304 73.3823C35.8693 73.8176 35.2414 73.8176 35.0803 73.3823C34.9284 72.9718 34.6009 72.6442 34.1903 72.4923C33.755 72.3312 33.755 71.7033 34.1903 71.5423C34.6009 71.3903 34.9284 71.0628 35.0803 70.6522Z" fill="white" stroke="#A98143"/>
</svg>
