<svg width="100" height="100" viewBox="0 0 100 100" fill="none" xmlns="http://www.w3.org/2000/svg">
<circle cx="50" cy="50" r="50" fill="#273040"/>
<rect x="29.7695" y="74.8892" width="2" height="1" rx="0.5" fill="#C4C4C4"/>
<rect x="32.7695" y="74.8892" width="2" height="1" rx="0.5" fill="#C4C4C4"/>
<rect x="35.7695" y="74.8892" width="2" height="1" rx="0.5" fill="#C4C4C4"/>
<rect x="38.7695" y="74.8892" width="2" height="1" rx="0.5" fill="#C4C4C4"/>
<rect x="41.7695" y="74.8892" width="2" height="1" rx="0.5" fill="#C4C4C4"/>
<rect x="44.7695" y="74.8892" width="2" height="1" rx="0.5" fill="#C4C4C4"/>
<rect x="47.7695" y="74.8892" width="2" height="1" rx="0.5" fill="#C4C4C4"/>
<rect x="50.7695" y="74.8892" width="2" height="1" rx="0.5" fill="#C4C4C4"/>
<rect x="53.7695" y="74.8892" width="2" height="1" rx="0.5" fill="#C4C4C4"/>
<rect x="56.7695" y="74.8892" width="2" height="1" rx="0.5" fill="#C4C4C4"/>
<rect x="59.7695" y="74.8892" width="2" height="1" rx="0.5" fill="#C4C4C4"/>
<rect x="62.7695" y="74.8892" width="2" height="1" rx="0.5" fill="#C4C4C4"/>
<rect x="65.7695" y="74.8892" width="2" height="1" rx="0.5" fill="#C4C4C4"/>
<rect x="68.7695" y="74.8892" width="2" height="1" rx="0.5" fill="#C4C4C4"/>
<rect x="71.7695" y="74.8892" width="2" height="1" rx="0.5" fill="#C4C4C4"/>
<rect x="74.7695" y="74.8892" width="2" height="1" rx="0.5" fill="#C4C4C4"/>
<path d="M45.2305 52.6104L23.2691 74.3892C22.7691 74.8892 27.2695 75.3892 28.2691 74.8892L41.7691 61.8892C42.2691 61.3892 41.9691 60.1892 42.7691 59.3892C43.5691 58.5892 46.1024 56.0558 47.2691 54.8892" stroke="#A98143"/>
<path d="M68.3535 27.0939C69.6107 25.8366 71.6491 25.8366 72.9063 27.0939C74.1635 28.3511 74.1635 30.3894 72.9063 31.6466L49.6807 54.8722C49.0949 55.458 48.1452 55.458 47.5594 54.8722L45.1279 52.4408C44.5421 51.855 44.5421 50.9052 45.1279 50.3194L68.3535 27.0939Z" stroke="white"/>
</svg>
