<svg width="100" height="100" viewBox="0 0 100 100" fill="none" xmlns="http://www.w3.org/2000/svg">
<circle cx="50" cy="50" r="50" fill="#273040"/>
<rect x="44.541" y="37.4907" width="11.0054" height="15.8638" rx="5.50272" stroke="#A98143" stroke-width="2"/>
<line x1="50.0055" y1="38.1767" x2="50.006" y2="52.7884" stroke="#A98143" stroke-width="1.8"/>
<line x1="55.6474" y1="46.1549" x2="45.1468" y2="46.1546" stroke="#A98143" stroke-width="1.8"/>
<line x1="38.747" y1="67.5847" x2="57.0323" y2="67.6112" stroke="#A98143" stroke-width="1.8" stroke-linecap="round"/>
<line x1="46.0664" y1="64.0213" x2="61.3519" y2="64.0281" stroke="#A98143" stroke-width="1.8" stroke-linecap="round"/>
<line x1="38.5443" y1="64.0315" x2="42.8088" y2="64.026" stroke="#A98143" stroke-width="1.8" stroke-linecap="round"/>
<path d="M69 33V30C69 27.7909 67.2091 26 65 26H35C32.7909 26 31 27.7909 31 30V74C31 76.2091 32.7909 78 35 78H65C67.2091 78 69 76.2091 69 74V37" stroke="white" stroke-width="1.3" stroke-linecap="round"/>
<path d="M35 69.5V74H66V30H59.5M35 65.5V30H40.5" stroke="white" stroke-width="1.3" stroke-linecap="round"/>
<path d="M40.65 26.65H59.35V33C59.35 33.7456 58.7456 34.35 58 34.35H42C41.2544 34.35 40.65 33.7456 40.65 33V26.65Z" stroke="white" stroke-width="1.3"/>
<path d="M55.5 57H39C38.4477 57 38 57.4477 38 58V60C38 60.5523 38.4477 61 39 61H61C61.5523 61 62 60.5523 62 60V58C62 57.4477 61.5523 57 61 57H58" stroke="white" stroke-width="1.3" stroke-linecap="round"/>
<path d="M46.0005 26C46.0005 26 45.8645 22 50.0002 22C54.136 22 53.9995 26 53.9995 26" stroke="white" stroke-width="1.3" stroke-linecap="round" stroke-linejoin="round"/>
</svg>
