<svg width="258" height="42" fill="none" xmlns="http://www.w3.org/2000/svg"><path d="M.7 17.7c.6 0 1 0 1.3-.2.2-.2.4-.5.4-1.1V2c0-.5-.2-.9-.4-1C1.7.9 1.3.8.7.8V.5h7.8a18.5 18.5 0 0 1 3.8.5c.7.2 1.3.5 2 .9.6.3 1.2.8 1.7 1.5.5.6.9 1.4 1.2 2.3.3 1 .4 2 .4 3.3 0 1.2-.1 2.3-.5 3.4-.3 1.1-.8 2-1.6 2.9a8 8 0 0 1-3 2c-1.2.5-2.8.7-4.6.7H.7v-.3Zm7 0c1.5 0 2.7-.3 3.7-.8a6 6 0 0 0 2.2-2c.6-.9 1-1.8 1.1-2.8l.3-3a11 11 0 0 0-.5-3.7A7 7 0 0 0 13 3a5.7 5.7 0 0 0-2.2-1.6A7 7 0 0 0 8.1.8c-1.1 0-2 .1-2.4.3-.5.1-.7.4-.7 1v14.3c0 .5.2.9.6 1 .4.2 1.1.3 2.1.3Zm11.6 0c.6 0 1 0 1.3-.2.2-.2.4-.5.4-1.1V2c0-.5-.2-.9-.4-1-.3-.2-.7-.3-1.3-.3V.5h6.8l2.7.1c.8.1 1.6.3 2.3.6a3.6 3.6 0 0 1 2.3 3.6 4 4 0 0 1-.6 2.3 4 4 0 0 1-1.5 1.3c-.6.3-1.3.5-2 .6l-2.2.1h-1c.3.5.6.8 1 1a2.9 2.9 0 0 0 2.5 0l4.3 6.3c.4.5.8.8 1.1 1 .4.2.9.3 1.3.3v.3H34a3.6 3.6 0 0 1-2.4-.9 7.8 7.8 0 0 1-1.6-1.9l-4.2-6h-2v7.2c0 .6 0 1 .3 1 .3.2.7.3 1.3.3v.3h-6v-.3Zm6.9-8.9 1.8-.1a4 4 0 0 0 1.4-.7c.4-.3.8-.7 1-1.2.3-.5.4-1.2.4-2 0-1.3-.4-2.3-1.1-3-.7-.6-1.7-1-3-1h-3v8h2.5ZM37.5 17c0-.3.1-.6.4-.9a1.3 1.3 0 0 1 1.9 0c.2.3.4.6.4 1 0 .3-.2.6-.4.9-.3.3-.6.4-1 .4-.3 0-.7-.1-1-.4-.2-.3-.3-.6-.3-1ZM48 18v-.3a2 2 0 0 0 1.2-.4c.4-.3.7-.7.9-1.1l5.2-12.6-.7-1.6c-.2-.5-.5-.8-.9-1L52.4.9V.5h4.2l6.3 15a4 4 0 0 0 1.1 1.7c.4.3 1 .5 1.6.5v.3h-6.8v-.3h.7c.6 0 1-.2 1-.6.1-.4 0-1-.2-1.5l-1.4-3.3H52L50.4 16v.7l.1.5.5.3h.7v.4H48Zm4.2-6h6.6l-3.3-8-3.3 8ZM68.2.5h2.2l9.3 13V2l-.1-.7-.4-.4-.5-.2H78V.5h3.7v.3H81l-.6.2-.3.3-.1.7v16h-.3L68.6 2.5v14.6l.4.4.5.2h.8v.3h-3.7v-.3h.7l.5-.2c.2 0 .3-.2.4-.4v-15c-.2-.5-.6-.8-1-1-.4-.2-.9-.3-1.4-.3V.5h2.4Zm15 16.4c0-.3.2-.6.4-.9a1.3 1.3 0 0 1 2 0c.2.3.3.6.3 1 0 .3-.1.6-.4.9-.2.3-.5.4-1 .4-.3 0-.6-.1-.9-.4-.2-.3-.4-.6-.4-1Zm19.3 1.4c-1 0-2-.2-3-.5a7.3 7.3 0 0 1-4.3-4.3c-.4-1.1-.6-2.4-.6-3.9s.2-2.8.6-4c.5-1.1 1.1-2.1 1.9-3a9 9 0 0 1 10.3-1.4c.2.2.5.2.8.2.4 0 .6 0 .7-.2.2-.2.3-.4.3-.7h.3l.3 5.4h-.2c-.4-1.6-1.1-2.8-2.2-3.7a6 6 0 0 0-4-1.4c-2 0-3.4.7-4.4 2a9 9 0 0 0-1.5 5.6 14.3 14.3 0 0 0 .6 4l.8 1.8 1.2 1.5c.5.5 1 .9 1.7 1.1.6.3 1.3.4 2 .4.8 0 1.4 0 1.8-.2a2.8 2.8 0 0 0 1.7-2l.2-1.7v-3.1c0-.5-.1-.8-.4-1l-1.5-.1v-.3h6.2V9a3 3 0 0 0-1.2.2c-.3.1-.4.4-.4.9V18h-.4c0-.9 0-1.5-.2-1.9 0-.3-.3-.5-.7-.5-.3 0-.6 0-.8.2l-1 .9a7.5 7.5 0 0 1-2.3 1.3l-1 .2h-1.3Zm10.4-.6c.5 0 1 0 1.2-.2.3-.1.4-.4.5-.9V2.1c0-.5-.2-.9-.4-1-.3-.2-.7-.3-1.3-.3V.5h12.4l1.3 3.8h-.3l-.7-1.7c-.3-.4-.6-.8-1-1-.3-.3-.7-.5-1.2-.6l-1.7-.2a40.1 40.1 0 0 0-3.6.3c-.3 0-.5.2-.7.3a1 1 0 0 0-.2.7v6.6h2.8a4 4 0 0 0 1.5-.3c.4-.1.7-.4.8-.7l.4-1.1V5h.4v8h-.3l-.1-1.7c0-.5-.1-1-.3-1.2-.2-.4-.4-.7-.8-.8-.4-.2-1-.3-1.6-.3h-2.8v7.4c0 .3 0 .5.2.7 0 .1.3.3.5.3l1 .2h1.5c1 0 2 0 2.7-.4a6 6 0 0 0 1.9-1.4c.5-.6 1-1.3 1.3-2.1l1-2.6h.3l-1.7 6.9h-13v-.3Zm15.8 0c.6 0 1 0 1.3-.2.2-.2.4-.5.4-1.1V2c0-.5-.2-.9-.4-1-.3-.2-.7-.3-1.3-.3V.5h6.8l2.7.1c.8.1 1.6.3 2.3.6a3.6 3.6 0 0 1 2.3 3.6 4 4 0 0 1-.6 2.3 4 4 0 0 1-1.5 1.3c-.7.3-1.3.5-2 .6l-2.2.1h-1c.3.5.6.8 1 1a2.9 2.9 0 0 0 2.5 0l4.2 6.3c.5.5.8.8 1.2 1 .4.2.9.3 1.3.3v.3h-2.4a3.6 3.6 0 0 1-2.4-.9 7.8 7.8 0 0 1-1.6-1.9l-4.2-6H133v7.2c0 .6.1 1 .4 1 .3.2.7.3 1.3.3v.3h-6v-.3Zm6.8-8.9 1.8-.1a4 4 0 0 0 1.5-.7c.4-.3.8-.7 1-1.2.2-.5.4-1.2.4-2 0-1.3-.4-2.3-1.1-3-.7-.6-1.8-1-3.1-1h-3v8h2.5ZM146 18v-.3a2 2 0 0 0 1.2-.4l1-1.1 5.2-12.6-.7-1.6c-.2-.5-.5-.8-1-1l-1.2-.2V.5h4.2l6.3 15a4 4 0 0 0 1 1.7c.5.3 1 .5 1.6.5v.3h-6.7v-.3h.6c.6 0 1-.2 1-.6.2-.4 0-1-.2-1.5l-1.3-3.3h-7l-1.5 3.8c-.1.2-.2.5-.1.7 0 .2 0 .3.2.5l.5.3h.7v.4H146Zm4.2-6h6.6l-3.3-8-3.3 8Zm14.7-1.2h.3c0 1.2.2 2.2.4 3.1.3.9.7 1.6 1.1 2.2.5.5 1 1 1.7 1.2a5.5 5.5 0 0 0 3.4.2c.4 0 .7-.2 1-.4l.8-1a3.1 3.1 0 0 0-.5-3.1c-.4-.6-1-1.1-1.6-1.6-.6-.6-1.4-1-2.1-1.6l-2.2-1.5a10 10 0 0 1-1.6-1.8c-.4-.7-.7-1.4-.7-2.1 0-.7.2-1.3.5-1.9.3-.5.7-.9 1.1-1.2.5-.4 1-.6 1.7-.8a6.2 6.2 0 0 1 3.3 0c.4 0 .8.2 1 .4l1 .4.6.2.7-.2.1-.8h.4v5.7h-.4c0-.8 0-1.6-.3-2.2a5 5 0 0 0-1-1.7 4.4 4.4 0 0 0-3.3-1.5c-1 0-1.7.2-2.1.7-.4.4-.6 1-.6 1.7 0 .8.2 1.5.6 2 .4.7 1 1.2 1.6 1.7l2.1 1.5c.8.4 1.4 1 2 1.4.7.6 1.3 1.2 1.7 1.8.4.6.6 1.4.6 2.2 0 .6 0 1.2-.2 1.8-.2.5-.5 1-1 1.4-.3.4-.9.7-1.6 1a8.3 8.3 0 0 1-5.3-.3 69.9 69.9 0 0 0-1.8-.5c-.7 0-1 .2-1 .8h-.4v-7.2Zm14.4 5.6V2c0-.5-.1-.9-.4-1-.3-.2-.7-.3-1.3-.3V.5h6v.3c-.6 0-1 .1-1.2.3-.3.1-.5.5-.5 1v14.3c0 .6.2 1 .5 1 .2.2.6.3 1.2.3v.3h-6v-.3c.6 0 1 0 1.3-.2.3-.2.4-.5.4-1.1ZM184.7.5h4.4l5.4 13.8L199.6.5h4.4v.3h-.8l-.5.2c-.2 0-.3.2-.3.4l-.1.6v15.1l.4.4.5.2h.8v.3h-6v-.3h.7l.5-.2.3-.4.1-.7v-15L193.4 18h-.3l-6-15.6v-.1l-.1-.1v15l.4.3.6.2h.7v.3H185v-.3h.7l.6-.2.3-.4V1.6c-.1-.4-.4-.6-.7-.6a4 4 0 0 0-1.2-.2V.5Zm21 8.7a9.1 9.1 0 0 1 5.2-8.3 8.3 8.3 0 0 1 6.7 0 8.6 8.6 0 0 1 4.6 4.8 9 9 0 0 1 0 7c-.4 1.1-1 2.1-1.8 3-.8.8-1.7 1.4-2.8 1.9a8.3 8.3 0 0 1-6.7 0 9 9 0 0 1-5.2-8.4ZM214 .6c-1 0-1.7.2-2.4.7-.7.4-1.2 1-1.7 1.8-.4.8-.8 1.7-1 2.7a14.6 14.6 0 0 0 0 6.5c.2 1.1.6 2 1 2.9a6 6 0 0 0 1.9 2c.8.5 1.6.8 2.7.8 1 0 1.8-.3 2.5-.7.7-.5 1.2-1 1.7-1.8s.8-1.7 1-2.8a15.2 15.2 0 0 0 0-6.5c-.2-1-.6-2-1-2.8a6 6 0 0 0-2-2c-.7-.6-1.6-.8-2.7-.8Zm16-.1v.3a4 4 0 0 0-1.7.2c-.3.2-.3.5 0 1l6 12.7 4.5-12.5v-1c-.2-.3-.7-.4-1.4-.4V.5h3.9v.3c-.7 0-1.2.1-1.5.3-.3.2-.5.6-.7 1.2L233.6 18l-.4.3-7.8-16c0-.4-.2-.6-.3-.8l-.5-.4-.5-.2h-.8V.4h6.6Zm9.5 17.5v-.3a2 2 0 0 0 1.2-.4c.4-.3.7-.7.9-1.1l5.2-12.6L246 2c-.2-.5-.5-.8-.9-1L244 .9V.5h4.2l6.3 15a4 4 0 0 0 1.1 1.7c.4.3 1 .5 1.5.5v.3h-6.7v-.3h.6c.7 0 1-.2 1-.6.2-.4.1-1-.1-1.5l-1.4-3.3h-6.9l-1.6 3.8-.1.7.2.5.5.3h.7v.4h-3.7Zm4.1-6h6.7L247 4l-3.4 8Z" fill="white"/><path stroke="white" d="M0 34.5h64"/><path d="M68.1 39v-9.3h4.2c1 0 1.8.3 2.3.8.6.6.9 1.3.9 2.2 0 1-.3 1.7-.9 2.2-.5.5-1.3.8-2.3.8h-3.1V39h-1Zm1-4.3h3.1c.8 0 1.3-.2 1.7-.5.4-.4.5-.9.5-1.5a2 2 0 0 0-.5-1.4c-.4-.4-1-.6-1.7-.6h-3v4Zm7.7 4.3v-9.3h1V38h5v1h-6Zm6.2 0 4-9.3h1.3l3.9 9.3H91l-1-2.7h-4.7L84.2 39H83Zm2.7-3.7h3.8l-1.9-4.5-1.9 4.5Zm10.9 3.8c-1 0-1.7-.1-2.3-.4-.5-.2-1-.5-1.3-1-.2-.4-.4-1-.4-1.5h1c0 .5.2.8.5 1.1.3.3.6.5 1 .6.5.2 1 .2 1.5.2.8 0 1.4-.1 1.9-.4.4-.3.7-.7.7-1.2a1 1 0 0 0-.4-.8c-.2-.2-.5-.4-.9-.5l-1.2-.4A98 98 0 0 1 94 34l-1-.7c-.2-.3-.3-.7-.3-1.1 0-.8.3-1.4.9-1.9.6-.4 1.5-.7 2.6-.7.8 0 1.5.1 2 .4.6.2 1 .6 1.2 1 .3.4.5.8.5 1.3h-1c-.1-.5-.4-.9-.8-1.2-.4-.3-1-.5-1.9-.5-.5 0-1 0-1.3.2a2 2 0 0 0-.7.4l-.4.5v.5c0 .3 0 .5.3.7.2.2.5.4.9.5l1.3.3a22.3 22.3 0 0 1 2.6.9c.3.1.7.4.9.7.2.3.3.7.3 1.1 0 .9-.3 1.6-1 2-.6.5-1.5.7-2.6.7Zm7.4-.1v-8.3h-3.2v-1h7.5v1H105V39h-1Zm5.5 0v-9.3h1V39h-1Zm7 .1c-.9 0-1.7-.2-2.3-.6-.7-.4-1.2-1-1.6-1.7-.3-.8-.5-1.6-.5-2.4 0-1 .2-1.7.5-2.4a4.2 4.2 0 0 1 4-2.4 4.6 4.6 0 0 1 3.3 1.4c.4.4.7 1 .9 1.5h-1.1a3 3 0 0 0-1.1-1.4c-.6-.3-1.2-.5-2-.5-.7 0-1.3.2-1.9.5-.5.4-.9.8-1.2 1.4-.2.5-.4 1.2-.4 1.9s.2 1.3.4 1.9c.3.5.7 1 1.2 1.3.6.3 1.2.5 2 .5.7 0 1.3-.2 1.9-.5a3 3 0 0 0 1-1.4h1.2c-.2.6-.5 1-1 1.5a4.3 4.3 0 0 1-3.2 1.4Zm11.9 0c-1 0-1.7-.1-2.3-.4-.5-.2-1-.5-1.3-1-.2-.4-.4-1-.4-1.5h1c0 .5.2.8.5 1.1.3.3.6.5 1 .6.5.2 1 .2 1.5.2.8 0 1.4-.1 1.9-.4.4-.3.7-.7.7-1.2a1 1 0 0 0-.4-.8c-.2-.2-.5-.4-.9-.5l-1.2-.4a100.7 100.7 0 0 1-2.6-.8l-1-.7c-.2-.3-.3-.7-.3-1.1 0-.8.3-1.4.9-1.9.6-.4 1.5-.7 2.6-.7.8 0 1.5.1 2 .4.6.2 1 .6 1.2 1 .3.4.5.8.5 1.3h-1c-.1-.5-.4-.9-.8-1.2-.4-.3-1-.5-1.9-.5-.5 0-1 0-1.3.2a2 2 0 0 0-.7.4l-.4.5v.5c0 .3 0 .5.3.7.2.2.5.4.9.5l1.3.3a22.1 22.1 0 0 1 2.6.9c.3.1.6.4.9.7.2.3.3.7.3 1.1 0 .9-.3 1.6-1 2-.6.5-1.5.7-2.6.7Zm9 0a3.7 3.7 0 0 1-3.4-2c-.4-.6-.6-1.3-.6-2v-5.4h1V35c0 .8.2 1.3.5 1.8.2.4.6.8 1 1a3.3 3.3 0 0 0 2.8 0c.5-.2.8-.6 1.1-1 .3-.5.4-1 .4-1.8v-5.3h1V35c0 .8 0 1.5-.4 2.2-.4.6-.8 1-1.4 1.4a4 4 0 0 1-2 .5Zm5.9-.1v-9.3h4.4c1 0 1.7.3 2.3.8.6.5.9 1.2.9 2.1 0 .6-.2 1.1-.4 1.5l-.8.8-1 .4L151 39h-1.3l-2.2-3.6h-3.3V39h-1Zm1-4.5h3.3l1-.2.8-.5c.3-.3.4-.7.4-1.2 0-.6-.2-1-.6-1.4-.4-.3-1-.5-1.6-.5h-3.3v3.8Zm12.2 4.6c-1 0-1.8-.2-2.5-.6-.6-.4-1.2-1-1.5-1.7-.4-.8-.6-1.6-.6-2.4 0-1 .2-1.7.6-2.4a4.3 4.3 0 0 1 4-2.4 4.5 4.5 0 0 1 4.2 2.7h-1.1a3 3 0 0 0-1.2-1.2c-.5-.3-1.1-.5-1.8-.5-.8 0-1.4.2-2 .5-.5.4-1 .8-1.2 1.4-.3.5-.4 1.2-.4 1.9s.1 1.3.4 1.9c.3.5.7 1 1.2 1.3.6.3 1.2.5 2 .5.5 0 1-.1 1.5-.4a3 3 0 0 0 1.3-1c.3-.5.4-1 .4-1.7h-3.4v-1h4.4v5h-1v-1.6l-.7.8a3.8 3.8 0 0 1-2.6 1Zm6-.1v-9.3h6.8v1h-5.8v3.1h5.2v1h-5.2V38h5.8v1h-6.8Zm12.3.1a5 5 0 0 1-1.9-.4 4.4 4.4 0 0 1-2.4-2.5 5 5 0 0 1 1-5.2c.3-.4.8-.8 1.4-1a5 5 0 0 1 2-.4 5 5 0 0 1 1.8.4c.6.2 1.1.6 1.5 1 .5.4.8 1 1 1.5.2.6.3 1.2.3 1.9a5 5 0 0 1-.3 1.8 4.6 4.6 0 0 1-2.5 2.5 5 5 0 0 1-1.9.4Zm0-1c.8 0 1.4-.2 2-.5.5-.3 1-.8 1.2-1.3a4 4 0 0 0 .5-2 4 4 0 0 0-.5-1.8c-.3-.6-.7-1-1.2-1.4-.6-.3-1.2-.5-2-.5-.7 0-1.4.2-2 .5-.5.4-.9.8-1.2 1.4a4 4 0 0 0-.4 1.9c0 .7.1 1.3.4 1.9a3.5 3.5 0 0 0 3.2 1.8Zm6.3.9v-9.3h1.2l5.7 7.8v-7.8h1V39h-1.2l-5.7-7.8V39h-1Z" fill="white"/><path stroke="white" d="M194 34.5h64"/></svg>