<svg width="258" height="42" fill="none" xmlns="http://www.w3.org/2000/svg"><path d="M.72 17.69c.58 0 1-.07 1.25-.22.27-.16.4-.52.4-1.08V2.11c0-.56-.13-.91-.4-1.05A2.45 2.45 0 0 0 .72.82V.5h7.82c.53 0 1.12.04 1.78.1a10.02 10.02 0 0 1 3.96 1.27c.64.37 1.2.87 1.7 1.51.5.63.9 1.4 1.2 2.33.3.91.46 2.02.46 3.31 0 1.17-.17 2.3-.5 3.39a7.32 7.32 0 0 1-1.61 2.88 8.03 8.03 0 0 1-3 1.97c-1.25.5-2.79.74-4.61.74H.72v-.31Zm6.98 0c1.5 0 2.73-.27 3.68-.8.96-.52 1.7-1.2 2.23-2.01.54-.83.91-1.76 1.1-2.78.21-1.04.31-2.07.31-3.08 0-1.37-.17-2.57-.52-3.6a7.05 7.05 0 0 0-1.47-2.54 5.66 5.66 0 0 0-2.18-1.54A6.95 6.95 0 0 0 8.1.82c-1.13 0-1.93.08-2.4.24-.46.14-.7.48-.7 1.03v14.3c0 .55.2.9.6 1.06a6.4 6.4 0 0 0 2.1.24Zm11.62 0c.56 0 .98-.07 1.25-.22.27-.16.41-.52.41-1.08V2.11c0-.56-.14-.91-.4-1.05a2.53 2.53 0 0 0-1.26-.24V.5h6.82c.9 0 1.78.05 2.64.15a7.6 7.6 0 0 1 2.3.55 3.64 3.64 0 0 1 2.3 3.58c0 .94-.2 1.7-.6 2.28-.38.56-.88 1-1.5 1.32-.61.3-1.3.5-2.04.62-.74.1-1.46.14-2.16.14h-1.01c.3.47.65.8 1.05.99.42.17.84.26 1.25.26.43 0 .84-.09 1.23-.26l4.27 6.26h.05c.36.51.74.86 1.12 1.03.4.18.84.27 1.3.27V18h-2.42a3.6 3.6 0 0 1-2.4-.86 7.76 7.76 0 0 1-1.61-1.9l-4.2-6.1h-2.09v7.25c0 .56.14.92.4 1.08.28.15.7.22 1.28.22V18h-5.98v-.31Zm6.84-8.86c.64 0 1.24-.05 1.8-.17a3.94 3.94 0 0 0 1.47-.64c.41-.3.74-.72.98-1.23.24-.53.36-1.19.36-1.99 0-1.3-.36-2.28-1.08-2.95C29 1.16 27.96.82 26.62.82h-3v8.01h2.54Zm11.33 8.11c0-.36.13-.68.39-.93a1.31 1.31 0 0 1 1.9 0 1.31 1.31 0 0 1 0 1.9c-.26.25-.57.38-.94.38s-.7-.13-.96-.39c-.26-.27-.39-.59-.39-.96ZM48 18v-.31c.4 0 .8-.15 1.2-.43.41-.3.7-.65.88-1.08l5.24-12.53-.68-1.63a1.6 1.6 0 0 0-.88-.96c-.4-.16-.84-.24-1.32-.24V.5h4.2l6.3 15.08a4 4 0 0 0 1.11 1.65c.4.3.9.46 1.51.46V18h-6.74v-.31h.65c.62 0 .97-.2 1.05-.6.1-.42.03-.91-.21-1.49l-1.37-3.34h-6.91l-1.59 3.82c-.1.26-.15.49-.12.7.04.19.1.36.22.5.13.13.3.23.5.31.21.07.44.1.7.1V18h-3.74Zm4.17-6.05h6.63l-3.32-7.94-3.3 7.94ZM68.22.5h2.19l9.28 12.96-.02-11.35c0-.32-.04-.57-.12-.74a.69.69 0 0 0-.31-.39 1.1 1.1 0 0 0-.5-.14c-.21-.02-.46-.02-.75-.02V.5h3.7v.32c-.28 0-.52 0-.72.02-.21.02-.39.06-.53.14a.69.69 0 0 0-.34.34c-.06.16-.1.38-.12.67L80.01 18h-.32L68.6 2.5v13.9c0 .31.02.56.09.74.08.17.19.3.33.38.15.08.32.13.53.14.21.02.46.03.75.03V18h-3.72v-.31c.28 0 .53-.01.74-.03.22-.01.4-.06.53-.14.14-.08.25-.2.31-.38.08-.18.12-.43.12-.75V2.06a2.3 2.3 0 0 0-1.06-.98A3.5 3.5 0 0 0 65.8.82V.5h2.42Zm15.02 16.44c0-.36.13-.68.39-.93a1.31 1.31 0 0 1 1.9 0 1.31 1.31 0 0 1 0 1.9c-.26.25-.57.38-.94.38s-.69-.13-.96-.39c-.26-.27-.39-.59-.39-.96Zm19.23 1.35c-1.02 0-2-.18-2.95-.53a7.3 7.3 0 0 1-4.3-4.27 10.38 10.38 0 0 1-.64-3.84c0-1.5.22-2.84.67-4.01A7.9 7.9 0 0 1 99.8.86a9.08 9.08 0 0 1 6.55-.02c.37.14.7.28.98.4.3.14.59.2.9.2.31 0 .55-.09.69-.26.16-.18.24-.4.24-.68h.31l.36 5.38h-.29a6.62 6.62 0 0 0-2.16-3.7 5.91 5.91 0 0 0-4-1.36c-1.94 0-3.41.65-4.42 1.96-1 1.32-1.51 3.18-1.51 5.6 0 .62.04 1.28.14 1.96a10.95 10.95 0 0 0 1.32 3.86c.35.58.76 1.1 1.22 1.54.48.45 1.03.81 1.64 1.08.62.26 1.32.39 2.08.39.7 0 1.3-.08 1.76-.24.46-.18.83-.43 1.1-.75.29-.33.49-.74.6-1.22.13-.5.2-1.06.2-1.7v-3.12c0-.47-.14-.76-.41-.9a3.5 3.5 0 0 0-1.52-.2v-.32h6.24v.31c-.46 0-.86.07-1.2.22-.32.13-.48.42-.48.89l.03 7.82h-.34c0-.9-.06-1.52-.2-1.87-.1-.35-.37-.53-.78-.53-.28 0-.54.08-.8.24-.23.16-.58.44-1.03.84a5.99 5.99 0 0 1-2.18 1.32 10.09 10.09 0 0 1-2.38.29Zm10.44-.6c.53 0 .93-.07 1.2-.2.27-.12.43-.41.48-.86l-.02-14.52c0-.56-.14-.91-.41-1.05a2.45 2.45 0 0 0-1.25-.24V.5h12.41l1.27 3.8h-.31a8.5 8.5 0 0 0-.72-1.68 3.3 3.3 0 0 0-.91-1.06 2.79 2.79 0 0 0-1.25-.55 7.7 7.7 0 0 0-1.73-.17c-.86 0-1.58.02-2.16.05a6 6 0 0 0-1.37.17c-.33.08-.57.2-.72.38-.12.16-.19.38-.19.67v6.55H120c.66 0 1.17-.08 1.54-.24.37-.16.64-.39.81-.7.18-.3.3-.67.34-1.12.05-.46.07-1 .07-1.6h.31v7.94h-.3c0-.61-.02-1.16-.06-1.64a3.1 3.1 0 0 0-.3-1.24 1.58 1.58 0 0 0-.82-.8 3.5 3.5 0 0 0-1.59-.28h-2.76v7.41c0 .27.05.5.15.67.1.16.28.3.52.39.26.1.6.16 1.01.19.42.03.93.05 1.54.05 1.02 0 1.9-.17 2.64-.5a5.95 5.95 0 0 0 1.9-1.42c.52-.6.97-1.29 1.34-2.09.37-.8.69-1.66.96-2.57h.31L125.9 18H112.9v-.31Zm15.8 0c.55 0 .97-.07 1.24-.22.27-.16.4-.52.4-1.08V2.11c0-.56-.13-.91-.4-1.05a2.53 2.53 0 0 0-1.25-.24V.5h6.82c.9 0 1.77.05 2.64.15a7.6 7.6 0 0 1 2.3.55 3.64 3.64 0 0 1 2.3 3.58c0 .94-.2 1.7-.6 2.28-.38.56-.88 1-1.5 1.32-.61.3-1.3.5-2.04.62-.74.1-1.46.14-2.16.14h-1.01c.3.47.65.8 1.05.99.42.17.84.26 1.25.26.43 0 .84-.09 1.22-.26l4.28 6.26h.04c.37.51.75.86 1.13 1.03.4.18.84.27 1.3.27V18h-2.43a3.6 3.6 0 0 1-2.4-.86 7.76 7.76 0 0 1-1.6-1.9l-4.2-6.1h-2.1v7.25c0 .56.14.92.42 1.08.27.15.7.22 1.27.22V18h-5.98v-.31Zm6.83-8.86c.64 0 1.24-.05 1.8-.17a3.94 3.94 0 0 0 1.47-.64c.41-.3.74-.72.98-1.23.24-.53.36-1.19.36-1.99 0-1.3-.36-2.28-1.08-2.95-.7-.69-1.73-1.03-3.07-1.03h-3v8.01h2.54Zm10.5 9.17v-.31c.4 0 .8-.15 1.2-.43.4-.3.7-.65.88-1.08l5.23-12.53-.67-1.63a1.6 1.6 0 0 0-.89-.96c-.4-.16-.84-.24-1.32-.24V.5h4.2L161 15.58a4 4 0 0 0 1.1 1.65c.4.3.9.46 1.51.46V18h-6.74v-.31h.64c.63 0 .98-.2 1.06-.6.1-.42.03-.91-.22-1.49l-1.36-3.34h-6.91l-1.59 3.82c-.11.26-.15.49-.12.7.03.19.1.36.22.5.13.13.3.23.5.31.2.07.44.1.7.1V18h-3.75Zm4.17-6.05h6.62l-3.3-7.94-3.32 7.94Zm14.7-1.15h.32c0 1.2.13 2.23.4 3.1.28.86.64 1.58 1.1 2.16.49.56 1.05.97 1.69 1.24a5.5 5.5 0 0 0 3.33.24c.42-.1.78-.25 1.08-.48.3-.24.55-.54.72-.9a3.1 3.1 0 0 0-.4-3.18 9.16 9.16 0 0 0-1.64-1.6 25.26 25.26 0 0 0-2.13-1.54 25.51 25.51 0 0 1-2.14-1.58c-.65-.56-1.2-1.16-1.65-1.78a3.7 3.7 0 0 1-.65-2.11c0-.7.14-1.31.43-1.83A4.82 4.82 0 0 1 168.15.5a6.2 6.2 0 0 1 3.32-.07 14.09 14.09 0 0 1 1.94.84c.24.13.48.2.72.2.32 0 .54-.07.65-.2.11-.14.17-.4.17-.77h.3v5.67h-.3c0-.8-.12-1.53-.36-2.19a5.08 5.08 0 0 0-.99-1.7 4.4 4.4 0 0 0-3.34-1.49c-.95 0-1.64.23-2.06.7a2.44 2.44 0 0 0-.62 1.73c0 .78.2 1.47.62 2.06.43.6.97 1.14 1.61 1.63.64.5 1.34.98 2.09 1.44.75.47 1.45.96 2.09 1.49a7.75 7.75 0 0 1 1.58 1.75c.43.64.65 1.39.65 2.23 0 .61-.09 1.19-.27 1.73a3.57 3.57 0 0 1-.88 1.44c-.4.4-.95.72-1.64.96a8.3 8.3 0 0 1-2.54.34c-.66 0-1.2-.07-1.66-.2a10.45 10.45 0 0 1-2.08-.74 1.8 1.8 0 0 0-.82-.19c-.74 0-1.1.28-1.1.84h-.32v-7.2Zm14.4 5.6V2.1c0-.56-.14-.91-.41-1.05a2.45 2.45 0 0 0-1.25-.24V.5h5.97v.32c-.57 0-1 .08-1.27.24-.27.14-.4.5-.4 1.05V16.4c0 .56.13.92.4 1.08.27.15.69.22 1.25.22l.02.31h-5.97v-.31c.57 0 .99-.07 1.25-.22.27-.16.4-.52.4-1.08ZM184.68.5h4.42l5.38 13.76L199.62.5h4.34v.32c-.28 0-.53 0-.74.02-.2.02-.38.06-.53.14a.8.8 0 0 0-.33.39c-.07.16-.1.38-.1.67v14.33c0 .32.03.57.1.74.08.18.18.31.3.41.15.08.33.13.54.14.22.02.48.03.77.03V18h-6.05v-.31c.29 0 .53-.01.74-.03.22-.01.4-.06.53-.14a.8.8 0 0 0 .31-.4c.08-.18.12-.43.12-.75V1.44L193.42 18h-.33l-6.02-15.65a.28.28 0 0 0-.05-.07c0-.03 0-.06-.02-.1v14.26c0 .3.03.54.1.72.07.16.19.28.33.36.14.08.32.13.53.14.2.02.45.03.74.03V18h-3.72v-.31c.29 0 .54-.01.75-.03.22-.01.4-.06.52-.14a.8.8 0 0 0 .31-.4c.09-.18.13-.43.13-.75V1.56c-.21-.32-.47-.52-.77-.6-.3-.1-.7-.14-1.23-.14V.5Zm20.97 8.72a9.11 9.11 0 0 1 2.5-6.36 8.26 8.26 0 0 1 6.1-2.62 8.56 8.56 0 0 1 6.12 2.62c.77.81 1.39 1.76 1.83 2.85.47 1.09.7 2.26.7 3.5 0 1.25-.23 2.43-.7 3.53a8.89 8.89 0 0 1-4.6 4.85c-1.06.47-2.18.7-3.36.7a8.26 8.26 0 0 1-6.1-2.64 9.5 9.5 0 0 1-2.5-6.43ZM214 .58c-.91 0-1.72.23-2.4.7a5.67 5.67 0 0 0-1.7 1.82 9.7 9.7 0 0 0-1.04 2.68c-.22 1.01-.34 2.07-.34 3.17 0 1.15.12 2.27.34 3.36.24 1.09.6 2.05 1.08 2.88.48.83 1.1 1.5 1.85 2.02.75.5 1.65.74 2.69.74.96 0 1.78-.22 2.47-.67a5.26 5.26 0 0 0 1.73-1.82c.46-.79.8-1.7 1-2.72a15.69 15.69 0 0 0 0-6.53 9.21 9.21 0 0 0-1.07-2.85 5.96 5.96 0 0 0-1.88-2.02 4.75 4.75 0 0 0-2.73-.76ZM229.93.5v.3c-.82 0-1.36.06-1.64.2-.27.15-.28.5-.02 1.04l6.12 12.65 4.37-12.46c.17-.51.17-.87 0-1.08-.18-.22-.64-.33-1.4-.33V.5h3.92v.32c-.67 0-1.16.1-1.47.28-.3.2-.55.58-.74 1.16L233.55 18l-.36.29-7.75-16.06a3.87 3.87 0 0 0-.39-.7 1.31 1.31 0 0 0-.98-.65c-.2-.04-.47-.06-.8-.06V.5h6.66Zm9.54 17.5v-.31c.4 0 .8-.15 1.2-.43.41-.3.7-.65.89-1.08l5.23-12.53-.67-1.63a1.6 1.6 0 0 0-.9-.96c-.4-.16-.83-.24-1.31-.24V.5h4.2l6.3 15.08a4 4 0 0 0 1.11 1.65c.4.3.9.46 1.52.46V18h-6.75v-.31h.65c.62 0 .97-.2 1.06-.6.1-.42.02-.91-.22-1.49l-1.37-3.34h-6.91l-1.59 3.82c-.1.26-.15.49-.12.7.04.19.1.36.22.5.13.13.3.23.5.31.21.07.45.1.7.1V18h-3.74Zm4.17-6.05h6.63l-3.31-7.94-3.32 7.94Z" fill="#273040"/><path stroke="#273040" d="M0 34.5h64"/><path d="M68.13 39v-9.27h4.18c.99 0 1.76.27 2.33.81.57.54.86 1.26.86 2.17 0 .92-.29 1.65-.86 2.19-.57.53-1.34.8-2.33.8h-3.13V39h-1.05Zm1.05-4.28h3.06c.72 0 1.27-.18 1.65-.54.37-.35.56-.84.56-1.47 0-.61-.19-1.1-.56-1.45-.38-.36-.93-.53-1.65-.53h-3.06v3.99Zm7.6 4.28v-9.27h1.05V38h5.06V39h-6.1Zm6.24 0 3.93-9.27h1.32L92.2 39h-1.16l-1.13-2.69h-4.6L84.18 39h-1.16Zm2.7-3.65h3.78l-1.89-4.53-1.89 4.53Zm10.84 3.76c-.92 0-1.66-.12-2.23-.36-.57-.25-1-.6-1.29-1.04a3.22 3.22 0 0 1-.49-1.48h1.1c.02.45.17.81.44 1.09.27.27.63.47 1.07.6.45.13.94.2 1.47.2.78 0 1.4-.14 1.86-.4.46-.29.69-.7.69-1.24a.97.97 0 0 0-.35-.78c-.23-.2-.53-.38-.91-.5-.38-.14-.79-.26-1.24-.36l-1.35-.35a7.02 7.02 0 0 1-1.25-.46 2.7 2.7 0 0 1-.91-.71c-.22-.3-.34-.68-.34-1.14 0-.75.3-1.37.87-1.85.59-.47 1.46-.71 2.62-.71.82 0 1.5.13 2.03.38.53.24.93.56 1.19.96.27.4.42.84.45 1.3H98.9a1.7 1.7 0 0 0-.7-1.17c-.41-.33-1.04-.49-1.9-.49-.51 0-.94.05-1.26.15-.33.1-.58.24-.76.41-.17.16-.29.33-.35.5-.06.18-.08.35-.08.5 0 .32.1.57.33.76.23.2.54.35.91.48.38.12.8.23 1.26.34.46.1.91.22 1.36.35.46.12.87.28 1.25.47.38.19.68.43.9.73.24.3.35.68.35 1.15a2.3 2.3 0 0 1-.97 1.99c-.66.45-1.55.68-2.7.68ZM104 39v-8.27h-3.23v-1h7.51v1h-3.23V39H104Zm5.48 0v-9.27h1.05V39h-1.05Zm7.07.11c-.92 0-1.72-.2-2.4-.63-.66-.43-1.18-1-1.55-1.72a5.33 5.33 0 0 1-.53-2.4c0-.87.18-1.67.53-2.39a4.23 4.23 0 0 1 3.95-2.35 4.56 4.56 0 0 1 3.32 1.39c.4.43.69.92.88 1.5h-1.1a2.93 2.93 0 0 0-1.1-1.36c-.51-.34-1.15-.5-1.91-.5-.75 0-1.39.16-1.92.5-.52.32-.92.77-1.2 1.33-.26.56-.4 1.19-.4 1.89 0 .69.14 1.32.4 1.89.28.56.68 1 1.2 1.34a3.6 3.6 0 0 0 1.92.49c.76 0 1.4-.17 1.9-.5.5-.34.87-.8 1.1-1.36h1.11a4.3 4.3 0 0 1-4.2 2.88Zm11.8 0c-.92 0-1.66-.12-2.23-.36-.57-.25-1-.6-1.29-1.04a3.22 3.22 0 0 1-.49-1.48h1.1c.02.45.17.81.44 1.09.27.27.63.47 1.06.6.45.13.94.2 1.48.2.78 0 1.4-.14 1.86-.4.46-.29.68-.7.68-1.24a.97.97 0 0 0-.35-.78c-.22-.2-.52-.38-.9-.5-.38-.14-.8-.26-1.24-.36l-1.36-.35a7.03 7.03 0 0 1-1.24-.46 2.7 2.7 0 0 1-.91-.71c-.23-.3-.34-.68-.34-1.14 0-.75.3-1.37.87-1.85.59-.47 1.46-.71 2.62-.71.82 0 1.5.13 2.03.38.53.24.93.56 1.19.96.27.4.42.84.44 1.3h-1.07a1.7 1.7 0 0 0-.7-1.17c-.41-.33-1.04-.49-1.9-.49-.52 0-.94.05-1.27.15-.32.1-.58.24-.75.41-.17.16-.29.33-.35.5-.06.18-.09.35-.09.5 0 .32.11.57.34.76.23.2.54.35.9.48.4.12.81.23 1.27.34.46.1.9.22 1.36.35.45.12.87.28 1.24.47.39.19.69.43.91.73.24.3.35.68.35 1.15a2.3 2.3 0 0 1-.98 1.99c-.65.45-1.55.68-2.69.68Zm8.97 0a3.68 3.68 0 0 1-3.43-1.95 4.43 4.43 0 0 1-.5-2.15v-5.28h1.05v5.3c0 .73.13 1.31.4 1.76.28.45.64.78 1.08 1a3.32 3.32 0 0 0 2.8 0c.44-.22.8-.55 1.08-1 .28-.45.42-1.03.42-1.75v-5.3h1.05V35a4.4 4.4 0 0 1-.5 2.14c-.34.62-.8 1.1-1.4 1.44-.6.35-1.27.52-2.05.52Zm5.97-.11v-9.27h4.43c.96 0 1.71.26 2.27.79.57.52.86 1.22.86 2.11 0 .6-.12 1.07-.35 1.43-.23.35-.51.62-.86.81-.34.18-.69.3-1.03.4l2.43 3.73h-1.24l-2.24-3.56h-3.22V39h-1.05Zm1.05-4.55h3.2c.34 0 .68-.05 1.02-.15a1.62 1.62 0 0 0 1.23-1.67c0-.59-.2-1.05-.6-1.39-.4-.34-.93-.51-1.6-.51h-3.25v3.72Zm12.12 4.66c-.94 0-1.75-.2-2.44-.63-.67-.43-1.19-1-1.55-1.72a5.22 5.22 0 0 1-.55-2.4c0-.87.19-1.67.56-2.39a4.29 4.29 0 0 1 4-2.35 4.5 4.5 0 0 1 4.22 2.63h-1.15a3.1 3.1 0 0 0-1.17-1.17c-.5-.3-1.1-.44-1.8-.44-.75 0-1.4.17-1.94.5-.54.33-.96.78-1.25 1.34a4.17 4.17 0 0 0-.42 1.89c0 .69.14 1.32.42 1.89.28.56.69 1 1.22 1.34.54.33 1.19.49 1.93.49.56 0 1.1-.12 1.59-.36.5-.25.9-.6 1.21-1.05.32-.46.48-1.01.48-1.66h-3.39v-.95h4.36V39h-.97v-1.64a3.84 3.84 0 0 1-3.36 1.75Zm6.03-.11v-9.27h6.82v1.01h-5.77v3.1h5.15v1.03h-5.15v3.12h5.77V39h-6.82Zm12.33.11c-.7 0-1.34-.12-1.92-.36a4.41 4.41 0 0 1-2.45-2.54 5.07 5.07 0 0 1 .95-5.2c.42-.44.92-.78 1.5-1.03a4.91 4.91 0 0 1 1.92-.36c.7 0 1.34.12 1.92.36a4.6 4.6 0 0 1 2.45 2.53 5.07 5.07 0 0 1 0 3.7 4.6 4.6 0 0 1-2.45 2.54 4.9 4.9 0 0 1-1.92.36Zm0-1.02c.75 0 1.4-.16 1.94-.49.55-.34.97-.78 1.26-1.34a4 4 0 0 0 .45-1.9c0-.7-.15-1.32-.45-1.88-.28-.56-.7-1-1.26-1.33a3.62 3.62 0 0 0-1.94-.5c-.75 0-1.4.16-1.95.5-.55.32-.97.77-1.27 1.33a4.06 4.06 0 0 0-.44 1.89c0 .69.15 1.32.44 1.89a3.46 3.46 0 0 0 3.22 1.83Zm6.24.91v-9.27h1.22l5.73 7.8v-7.8h1.05V39h-1.22l-5.73-7.83V39h-1.05Z" fill="#273040"/><path stroke="#273040" d="M194 34.5h64"/></svg>