<?xml version="1.0" encoding="utf-8"?>
<!-- Generator: Adobe Illustrator 24.3.0, SVG Export Plug-In . SVG Version: 6.00 Build 0)  -->
<svg version="1.1" id="Слой_1" xmlns="http://www.w3.org/2000/svg" xmlns:xlink="http://www.w3.org/1999/xlink" x="0px" y="0px"
	 viewBox="0 0 22 22" style="enable-background:new 0 0 22 22;" xml:space="preserve">
<style type="text/css">
	.st0{fill-rule:evenodd;clip-rule:evenodd;fill:#A98143;}
</style>
<path class="st0" d="M6.5,0.1C7.6,0,8,0,11,0s3.4,0,4.5,0.1s2,0.2,2.7,0.5s1.4,0.7,1.9,1.3c0.6,0.5,1,1.2,1.3,1.9s0.5,1.5,0.5,2.7
	C22,7.6,22,8,22,11s0,3.4-0.1,4.5c-0.1,1.2-0.2,2-0.5,2.7s-0.7,1.4-1.3,1.9c-0.5,0.6-1.2,1-1.9,1.3c-0.7,0.3-1.5,0.5-2.7,0.5
	C14.4,22,14,22,11,22s-3.4,0-4.5-0.1c-1.2-0.1-2-0.2-2.7-0.5s-1.4-0.7-1.9-1.3c-0.6-0.5-1-1.2-1.3-1.9c-0.3-0.7-0.5-1.5-0.5-2.7
	C0,14.4,0,14,0,11s0-3.4,0.1-4.5s0.2-2,0.5-2.7s0.7-1.4,1.3-1.9c0.5-0.6,1.2-1,1.9-1.3S5.3,0.1,6.5,0.1L6.5,0.1z M15.4,2
	c-1.1,0-1.5,0-4.4,0S7.7,2,6.6,2s-1.7,0.2-2,0.4C4,2.6,3.4,2.9,3.2,3.3C2.9,3.7,2.6,4,2.4,4.5c-0.2,0.4-0.3,1-0.4,2
	C2,7.7,2,8.1,2,11s0,3.3,0.1,4.4c0,1.1,0.2,1.7,0.4,2c0.2,0.5,0.5,0.9,0.8,1.3c0.4,0.4,0.8,0.6,1.3,0.8c0.4,0.2,1,0.3,2,0.4
	C7.7,20,8.1,20,11,20s3.3,0,4.4-0.1c1.1,0,1.7-0.2,2-0.4c0.5-0.2,0.9-0.4,1.3-0.8s0.6-0.8,0.8-1.3c0.2-0.4,0.3-1,0.4-2
	C20,14.3,20,13.9,20,11s0-3.3-0.1-4.4c0-1.1-0.2-1.7-0.4-2c-0.2-0.5-0.4-0.9-0.8-1.3s-0.8-0.6-1.3-0.8C17.1,2.3,16.5,2.1,15.4,2z
	 M9.6,14.4c0.8,0.3,1.7,0.4,2.5,0.1c0.8-0.2,1.5-0.8,2-1.5s0.7-1.6,0.6-2.4c-0.1-0.8-0.5-1.6-1.1-2.2c-0.4-0.4-0.8-0.7-1.4-0.9
	c-0.5-0.2-1.1-0.2-1.6-0.2c-0.5,0.1-1.1,0.2-1.5,0.5C8.7,8.1,8.3,8.5,7.9,9c-0.3,0.5-0.5,1-0.6,1.5s0,1.1,0.1,1.6
	c0.2,0.5,0.4,1,0.8,1.4C8.6,13.9,9.1,14.2,9.6,14.4z M7,7c0.5-0.5,1.1-0.9,1.8-1.2s1.4-0.4,2.2-0.4s1.5,0.1,2.2,0.4S14.5,6.5,15,7
	s0.9,1.1,1.2,1.8c0.3,0.7,0.4,1.4,0.4,2.2s-0.1,1.5-0.4,2.2c-0.3,0.7-0.7,1.3-1.2,1.8c-1.1,1.1-2.5,1.7-4,1.7S8.1,16.1,7,15
	s-1.7-2.5-1.7-4C5.3,9.5,5.9,8.1,7,7z M18.3,5.2c0,0.7-0.6,1.3-1.3,1.3c-0.7,0-1.3-0.6-1.3-1.3s0.6-1.3,1.3-1.3
	C17.8,3.9,18.3,4.5,18.3,5.2z"/>
</svg>
