<?xml version="1.0" encoding="utf-8"?>
<!-- Generator: Adobe Illustrator 24.3.0, SVG Export Plug-In . SVG Version: 6.00 Build 0)  -->
<svg version="1.1" id="Слой_1" xmlns="http://www.w3.org/2000/svg" xmlns:xlink="http://www.w3.org/1999/xlink" x="0px" y="0px"
	 viewBox="0 0 22 22" style="enable-background:new 0 0 22 22;" xml:space="preserve">
<style type="text/css">
	.st0{fill:#A98143;}
</style>
<path class="st0" d="M18.8,3.2c-1-1-2.2-1.8-3.5-2.4C13.9,0.3,12.5,0,11,0C5,0,0.1,4.9,0.1,10.9c0,1.9,0.5,3.8,1.5,5.5L0,22l5.8-1.5
	c1.6,0.9,3.4,1.3,5.2,1.3l0,0c6,0,10.9-4.9,11-10.9c0-1.4-0.3-2.9-0.8-4.2C20.6,5.4,19.8,4.2,18.8,3.2L18.8,3.2z M11,20
	c-1.6,0-3.2-0.4-4.6-1.3l-0.3-0.2l-3.4,0.9l0.9-3.3l-0.2-0.3C2.5,14.4,2,12.7,2,11c0-5,4.1-9.1,9.1-9.1c1.2,0,2.4,0.2,3.5,0.7
	s2.1,1.1,3,2c0.8,0.8,1.5,1.8,2,2.9s0.7,2.3,0.7,3.5C20.1,15.9,16.1,20,11,20z M16,13.2c-0.3-0.1-1.6-0.8-1.9-0.9
	c-0.3-0.1-0.4-0.1-0.6,0.1c-0.2,0.3-0.7,0.9-0.9,1.1c-0.2,0.2-0.3,0.2-0.6,0.1c-0.3-0.1-1.2-0.4-2.2-1.4c-0.8-0.7-1.4-1.6-1.5-1.9
	C8.1,10,8.2,9.9,8.4,9.7c0.1-0.1,0.2-0.2,0.4-0.4C9,9.1,9.1,9,9.2,8.8c0.1-0.2,0.1-0.3,0-0.5c-0.1-0.2-0.6-1.5-0.8-2
	C8.1,5.8,8,5.8,7.8,5.8c-0.2,0-0.4,0-0.6,0.1C7,6,6.7,6,6.4,6.2c-0.4,0.2-1,0.9-1,2.3s1,2.6,1.1,2.8s1.9,2.9,4.7,4.1
	c0.6,0.3,1.2,0.4,1.6,0.6c0.7,0.2,1.2,0.2,1.7,0.1s1.6-0.7,1.8-1.3c0.2-0.6,0.2-1.2,0.2-1.3S16.3,13.3,16,13.2z"/>
</svg>
