<?xml version="1.0" encoding="utf-8"?>
<!-- Generator: Adobe Illustrator 24.3.0, SVG Export Plug-In . SVG Version: 6.00 Build 0)  -->
<svg version="1.1" id="Слой_1" xmlns="http://www.w3.org/2000/svg" xmlns:xlink="http://www.w3.org/1999/xlink" x="0px" y="0px"
	 viewBox="0 0 24 25" style="enable-background:new 0 0 24 25;" xml:space="preserve">
<style type="text/css">
	.st0{fill:#A98143;}
</style>
<path class="st0" d="M11.4,0C9.3,0,5,0.4,2.5,2.6C0.7,4.4,0.1,7,0,10.2s-0.2,9.3,5.8,11l0,0v2.5c0,0,0,1,0.6,1.2
	c0.8,0.3,1.3-0.5,2.1-1.4c0.4-0.5,1-1.1,1.5-1.6c4.1,0.3,7.2-0.4,7.5-0.5c0.8-0.3,5.5-0.9,6.2-6.9c0.8-6.3-0.4-10.2-2.5-12
	C20.7,1.9,18.1,0,12.5,0C12.5,0,12,0,11.4,0L11.4,0z M11.4,1.8c0.6,0,0.9,0,0.9,0c4.8,0,7.1,1.4,7.6,1.9c1.8,1.5,2.7,5.1,2,10.3l0,0
	c-0.6,5.1-4.4,5.4-5.1,5.6c-0.3,0.1-3,0.8-6.5,0.5c0,0-2.6,3.1-3.4,3.9c-0.1,0.1-0.3,0.2-0.4,0.1c-0.1,0-0.2-0.2-0.2-0.4v-4.2
	c-5-1.4-4.7-6.6-4.7-9.3c0.1-2.7,0.6-4.9,2.1-6.4C6,2,9.7,1.8,11.4,1.8L11.4,1.8z M11.8,4.5c-0.1,0-0.2,0-0.2,0.1
	c-0.1,0.1-0.1,0.1-0.1,0.2s0,0.2,0.1,0.2c0.1,0.1,0.1,0.1,0.2,0.1c1.7,0,3.1,0.6,4.2,1.7s1.7,2.6,1.7,4.5c0,0.2,0.1,0.3,0.3,0.3
	c0.1,0,0.2,0,0.2-0.1c0.1-0.1,0.1-0.1,0.1-0.2c0-2.1-0.7-3.7-1.9-5C15.3,5.1,13.7,4.5,11.8,4.5L11.8,4.5z M7.7,5.2
	c-0.2,0-0.5,0-0.6,0.1l0,0c-0.5,0.3-0.9,0.6-1.2,1l0,0C5.5,6.6,5.3,7,5.3,7.3v0.1c0,0.1,0,0.3,0.1,0.4l0,0c0.1,0.5,0.5,1.3,1.3,2.7
	c0.4,0.8,1,1.6,1.5,2.3c0.3,0.4,0.4,0.7,0.7,1L9.2,14c0.3,0.3,0.7,0.6,1,0.9c0.7,0.6,1.5,1.1,2.3,1.5c1.4,0.8,2.2,1.1,2.7,1.3l0,0
	c0.2,0.1,0.4,0.1,0.6,0.1c0.3,0,0.7-0.2,1-0.5l0,0c0.4-0.3,0.7-0.8,1-1.2l0,0c0.2-0.4,0.2-0.9-0.2-1.2c0,0-0.7-0.6-1.1-0.9
	c-0.4-0.3-0.8-0.5-1.2-0.7c-0.5-0.3-1.1-0.1-1.3,0.2l-0.5,0.6c-0.2,0.3-0.7,0.3-0.7,0.3c-3.3-0.8-4.2-4.1-4.2-4.1s0-0.4,0.3-0.7
	L9.6,9c0.3-0.2,0.5-0.8,0.2-1.3C9.6,7.3,9.3,7,9.1,6.6C8.8,6.2,8.5,5.9,8.2,5.5C8.1,5.3,7.9,5.2,7.7,5.2L7.7,5.2z M12.4,6.1
	c-0.1,0-0.2,0-0.2,0.1c-0.1,0.1-0.1,0.1-0.1,0.2s0,0.2,0.1,0.2c0.1,0.1,0.1,0.1,0.2,0.1c1.2,0.1,2.1,0.5,2.8,1.2
	c0.7,0.7,1,1.6,1,2.7c0,0.1,0,0.2,0.1,0.2c0.1,0.1,0.1,0.1,0.2,0.1s0.2,0,0.2-0.1c0.1-0.1,0.1-0.1,0.1-0.2c0-1.2-0.4-2.3-1.1-3.1
	C14.9,6.7,13.8,6.2,12.4,6.1L12.4,6.1L12.4,6.1z M12.9,7.8c-0.1,0-0.2,0-0.2,0.1C12.6,8,12.6,8,12.6,8.1c0,0.2,0.1,0.3,0.3,0.3
	c0.6,0,0.9,0.2,1.2,0.4c0.3,0.3,0.4,0.6,0.4,1.2c0,0.1,0.1,0.2,0.1,0.2c0.1,0.1,0.1,0.1,0.2,0.1c0.1,0,0.2,0,0.2-0.1
	c0.1-0.1,0.1-0.1,0.1-0.2c0-0.7-0.2-1.2-0.6-1.6C14.1,8.1,13.6,7.8,12.9,7.8L12.9,7.8L12.9,7.8z"/>
</svg>
