<?xml version="1.0" encoding="utf-8"?>
<!-- Generator: Adobe Illustrator 24.3.0, SVG Export Plug-In . SVG Version: 6.00 Build 0)  -->
<svg version="1.1" id="Слой_1" xmlns="http://www.w3.org/2000/svg" xmlns:xlink="http://www.w3.org/1999/xlink" x="0px" y="0px"
	 viewBox="0 0 22.5 20.6" style="enable-background:new 0 0 22.5 20.6;" xml:space="preserve">
<style type="text/css">
	.st0{fill:#A98143;}
</style>
<path class="st0" d="M22.4,1.2c-0.1-0.3-0.3-0.6-0.6-0.8l0,0c-0.3-0.2-0.6-0.3-0.9-0.4s-0.7,0-1,0.1L1.2,7.7
	C0.8,7.9,0.5,8.1,0.3,8.4C0.1,8.7,0,9.1,0,9.5s0.1,0.7,0.4,1.1c0.2,0.3,0.5,0.5,0.9,0.7l3.9,1.4l2.2,7.1c0,0,0,0,0,0.1
	s0.1,0.2,0.1,0.2c0.1,0.1,0.2,0.2,0.3,0.2h0.1c0.1,0,0.3,0,0.3,0s0,0,0.1,0s0.2-0.1,0.3-0.2c0,0,0,0,0.1,0l3-3.3l4.4,3.4
	c0.3,0.3,0.7,0.4,1.1,0.4c0.9,0,1.7-0.6,1.8-1.5l3.4-16.8C22.5,1.9,22.5,1.6,22.4,1.2z M17.5,18.7c0,0.1,0,0.1-0.1,0.1
	s-0.1,0.1-0.1,0.1s-0.1,0-0.2,0c0,0-0.1,0-0.1-0.1L12,15c-0.1-0.1-0.3-0.2-0.5-0.2c0,0,0,0-0.1,0c-0.2,0-0.4,0.1-0.5,0.3l-1.6,1.7
	l0.5-2.6l7.5-7.5c0.1-0.1,0.2-0.3,0.2-0.5s0-0.4-0.1-0.5S17.1,5.4,17,5.4c-0.2,0-0.4,0-0.5,0.1L5.8,11.1l-4-1.4
	c-0.1,0-0.1-0.1-0.1-0.1c0-0.1-0.1-0.1-0.1-0.2c0-0.1,0-0.1,0-0.2c0-0.1,0.1-0.1,0.1-0.1l18.8-7.6c0.1,0,0.1,0,0.2,0s0.1,0,0.2,0.1
	L21,1.7c0,0.1,0,0.1,0,0.2L17.5,18.7z M12.8,9.2l-4.1,4.1c-0.1,0.1-0.2,0.2-0.2,0.4L8,16.3l-1.2-4L12.8,9.2z"/>
</svg>
