<?xml version="1.0" standalone="no"?>
<!DOCTYPE svg PUBLIC "-//W3C//DTD SVG 20010904//EN"
 "http://www.w3.org/TR/2001/REC-SVG-20010904/DTD/svg10.dtd">
<svg version="1.0" xmlns="http://www.w3.org/2000/svg"
 width="700.000000pt" height="700.000000pt" viewBox="0 0 700.000000 700.000000"
 preserveAspectRatio="xMidYMid meet">
<metadata>
Created by potrace 1.14, written by Peter Selinger 2001-2017
</metadata>
<g transform="translate(0.000000,700.000000) scale(0.100000,-0.100000)"
fill="#000000" stroke="none">
<path d="M0 3500 l0 -3500 3500 0 3500 0 0 3500 0 3500 -3500 0 -3500 0 0
-3500z m5264 1527 c54 -15 162 -52 240 -84 121 -49 152 -58 218 -61 77 -4 78
-4 112 30 21 21 37 49 41 71 6 30 12 37 30 37 28 0 27 12 55 -440 11 -173 22
-334 25 -357 4 -40 3 -43 -20 -43 -20 0 -26 7 -35 43 -74 295 -279 552 -534
667 -135 61 -211 75 -426 74 -184 0 -200 -2 -285 -28 -386 -118 -594 -441
-636 -986 -32 -432 74 -877 279 -1165 204 -287 490 -421 827 -385 250 26 376
125 438 344 18 64 20 108 24 441 4 341 2 373 -14 405 -26 51 -77 72 -189 78
-91 5 -94 6 -94 28 l0 24 490 0 490 0 0 -24 c0 -22 -5 -24 -69 -28 -83 -6
-155 -38 -176 -79 -13 -24 -15 -125 -15 -674 l0 -645 -23 0 c-23 0 -24 4 -35
129 -18 202 -45 246 -152 245 -73 -1 -111 -22 -250 -139 -246 -205 -358 -255
-627 -275 -696 -53 -1220 357 -1340 1050 -26 146 -23 488 5 641 92 506 372
873 794 1044 186 75 309 95 558 91 173 -3 206 -6 294 -29z m-3186 -54 c11 -27
237 -568 502 -1203 265 -635 498 -1186 518 -1224 73 -136 171 -209 300 -222
57 -6 62 -9 62 -30 l0 -24 -530 0 -530 0 0 25 c0 25 1 25 80 25 139 0 182 32
188 139 5 93 3 101 -220 639 l-30 72 -543 0 c-425 0 -544 -3 -548 -12 -3 -7
-60 -146 -127 -308 -68 -162 -126 -311 -131 -330 -25 -106 64 -200 189 -200
27 0 32 -3 32 -25 l0 -25 -295 0 -295 0 0 24 c0 20 6 24 41 29 106 14 229 111
279 219 16 35 209 496 429 1025 l400 962 -53 128 c-73 175 -90 206 -133 242
-47 39 -110 60 -195 68 -63 5 -68 8 -68 29 l0 24 329 0 329 0 20 -47z"/>
<path d="M1622 3862 c-138 -334 -254 -615 -258 -624 -6 -17 23 -18 511 -18
488 0 517 1 512 18 -5 17 -507 1225 -511 1229 -1 1 -115 -271 -254 -605z"/>
</g>
</svg>
